<?xml version="1.0" encoding="utf-8"?>
<!-- Generator: Adobe Illustrator 14.0.0, SVG Export Plug-In . SVG Version: 6.00 Build 43363)  -->
<!DOCTYPE svg PUBLIC "-//W3C//DTD SVG 1.1//EN" "http://www.w3.org/Graphics/SVG/1.1/DTD/svg11.dtd">
<svg version="1.1" id="Layer_1" xmlns="http://www.w3.org/2000/svg" xmlns:xlink="http://www.w3.org/1999/xlink" x="0px" y="0px"
	 width="800px" height="800px" viewBox="0 0 800 800" enable-background="new 0 0 800 800" xml:space="preserve">
<g>
	<g>
		<g>
			<path d="M603.928,308.727c-20.073,0-36.364,16.291-36.364,36.364v235.291c0,20.072,16.291,36.363,36.364,36.363h62.745
				c20.072,0,36.363-16.291,36.363-36.363V345.091c0-20.073-16.291-36.364-36.363-36.364H603.928z"/>
		</g>
		<g>
			<path d="M133.327,308.727c-20.073,0-36.363,16.291-36.363,36.364v235.291c0,20.072,16.291,36.363,36.363,36.363h62.746
				c20.073,0,36.364-16.291,36.364-36.363V345.091c0-20.073-16.291-36.364-36.364-36.364H133.327z"/>
		</g>
		<g>
			<path d="M149.018,462.728c0,67.055,26.109,130.091,73.509,177.509c47.4,47.382,110.418,73.491,177.454,73.491
				c138.382,0,250.982-112.582,250.982-251c0-138.382-112.582-250.964-250.982-250.964
				C261.6,211.764,149.018,324.346,149.018,462.728z"/>
		</g>
		<circle fill="#635E54" cx="400" cy="462.728" r="235.291"/>
		<path fill="#AAA096" d="M210.382,573.327l391.945-195.963C568.945,298.563,490.818,243.146,400,243.146
			c-121.091,0-219.618,98.509-219.618,219.6C180.382,503.055,191.364,540.818,210.382,573.327z"/>
		<g>
			<path fill="#4F4A44" d="M337.582,242.473h-19.709c-9.382,3.509-18.564,7.455-27.328,12.073v19.327c0,0,0,15.673-15.691,15.673
				s-31.4,0-31.4,0s-0.854,0-2.073-0.218c-39.982,36.618-67.254,86.728-74.509,143.236c7.891,7.909,13.873,13.891,13.873,13.891
				s-15.673,15.637,0,31.364c15.691,15.673,78.436,78.418,78.436,78.418s-15.691,15.691,0,31.382
				c14.6,14.582,31.382,31.4,31.382,31.4v51.963c23.982,12.637,50.4,21.109,78.418,24.801v-14.019
				c15.691,0,31.364-15.709,31.364-31.4v-78.418c0-13.854-16.601-31.382-31.364-31.382s-31.382,0-31.382,0
				s-6.127-6.127-15.69-15.673c-9.563-9.581-22.273-9.163-31.364,0c-9.091,9.109-15.691,15.673-15.691,15.673l-31.382-31.382
				c7.764-7.764,8.364-22.709,0-31.072c-8.364-8.382-15.654-16-15.654-16c-8.109-8.073-8.109-23.31,0-31.382
				c8.036-8.073,23.254-8.073,31.345,0l15.691,15.728v31.363c0,7.836,15.691,7.836,15.691,0v-31.363l31.364-47.073c0,0,0,0,15.69,0
				c15.673,0,31.382-15.709,31.382-31.4c0-15.655-15.69-31.382-31.382-31.382c-14.654,0-7.836,0-15.69,0s-7.854-15.709,0-15.709
				s31.363,0,31.363,0s-0.018,0,15.691,15.709c7.854,7.873,23.527,7.836,31.382,0c7.836-7.854,7.8-23.527,0-31.382
				C399.072,303.982,337.582,242.473,337.582,242.473z M630.473,415.019h-26.218l-31.382,31.418c0,0-31.364,0-47.037,0
				c-15.69,0-31.399,15.636-31.399,31.363v47.055c0,15,16.745,31.363,31.399,31.363c0,0.164,15.673,0,15.673,0s0,15.691,0,31.382
				c0,15.691,15.691,15.691,15.691,15.691v34.236c47.836-43.073,78.091-105.291,78.091-174.764
				C635.291,446.437,633.6,430.437,630.473,415.019z M525.836,430.69c15.673,0,15.673-15.672,15.673-15.672v-31.31
				c0,0,0.091-15.745,15.709-15.745h47.019c0,0,0,15.691,15.69,15.691c0.491,0,0.946,0,1.437,0
				c-23.272-65.218-74.399-117.019-139.236-141.182h-3.399l-31.364,31.382v47.109l12.654,12.654c4.037,4.073,11.655,4.073,15.673,0
				c4.055-4.036,4.055-11.654,0-15.691l-4.636-4.618c-8.219-8.236,0-15.909,0-15.909s7.654-7.873,15.527,0
				c7.836,7.854,15.636,15.764,15.636,15.764s-31.891,31.927-39.163,39.146c-7.255,7.291,0,15.709,0,15.709l15.654,15.691
				c0,0,0,15.654,0,31.31c0,15.673,15.691,15.673,15.691,15.673S510.146,430.69,525.836,430.69z"/>
			<path fill="#FFFDFC" d="M332.509,237.4c-21.108,6.291-40.927,15.582-59.109,27.182c-1.582,4.164-5.182,8.618-13.036,9.109
				c-57.655,42.636-95.255,110.854-95.582,188.037c0.091,0.108,0.164,0.236,0.291,0.363c15.673,15.691,78.418,78.418,78.418,78.418
				s-15.654,15.691,0,31.364c14.6,14.6,31.382,31.418,31.382,31.418v58.491c23.655,14.908,50.073,25.872,78.418,31.6V666
				c15.69,0,31.382-15.673,31.382-31.363V556.2c0-13.909-16.601-31.4-31.382-31.4c-14.782,0-31.363,0-31.363,0
				s-6.128-6.108-15.673-15.654c-9.563-9.582-22.272-9.127-31.382,0c-9.091,9.109-15.691,15.654-15.691,15.654l-31.363-31.346
				c7.727-7.764,8.327-22.69,0-31.072c-8.382-8.363-15.709-15.981-15.709-15.981c-8.073-8.109-8.073-23.31,0-31.382
				c8.055-8.091,23.291-8.091,31.364,0l15.691,15.672v31.382c0,7.837,15.691,7.837,15.691,0V430.69l31.382-47.072c0,0,0,0,15.673,0
				c15.69,0,31.363-15.654,31.363-31.345c0-15.709-15.673-31.4-31.363-31.4c-14.654,0-7.854,0-15.673,0
				c-7.854,0-7.854-15.672,0-15.672c7.836,0,31.363,0,31.363,0s-0.036-0.019,15.673,15.672c7.837,7.854,23.546,7.854,31.382,0
				c7.837-7.836,7.818-23.563,0-31.363C383.728,288.6,350.146,255.036,332.509,237.4z M634.382,444.418
				c-1.601-2.6-1.69-5.437-0.637-8.108c-1.418-12.637-3.963-24.982-7.327-36.964h-37.836l-31.364,31.363c0,0-31.382,0-47.072,0
				c-15.691,0-31.4,15.691-31.4,31.382v47.055c0,14.981,16.764,31.382,31.4,31.382c0,0.146,15.69,0,15.69,0s0,15.69,0,31.363
				c0,15.691,15.673,15.691,15.673,15.691v62.891c56.873-42.945,93.782-110.945,93.782-187.709
				C635.291,456.563,634.836,450.491,634.382,444.418z M510.146,415.019c15.69,0,15.69-15.673,15.69-15.673v-31.328
				c0,0,0.073-15.764,15.71-15.764h47.018c0,0,0,15.709,15.673,15.709c3.745,0,7.473,0,11.036,0
				c-29.2-66.273-88.055-116.291-159.727-133.655l-23.873,23.836v47.109l12.654,12.637c4.073,4.036,11.654,4.036,15.691,0
				c4.036-4,4.036-11.618,0-15.655l-4.637-4.636c-8.236-8.236,0-15.909,0-15.909s7.673-7.891,15.509,0
				c7.837,7.873,15.655,15.764,15.655,15.764s-31.928,31.909-39.183,39.164c-7.254,7.273,0,15.691,0,15.691l15.691,15.709
				c0,0,0,15.6,0,31.328c0,15.673,15.654,15.673,15.654,15.673S494.437,415.019,510.146,415.019z"/>
		</g>
		<path fill="#4F4A44" d="M595.563,331.854c-4.382,2.782-7.327,7.655-7.327,13.236v235.291c0,5.582,2.945,10.437,7.327,13.236
			c25.091-37.437,39.745-82.437,39.745-130.891C635.291,414.291,620.654,369.291,595.563,331.854z"/>
		<path fill="#4F4A44" d="M204.455,593.618c4.382-2.782,7.309-7.654,7.309-13.236V345.091c0-5.582-2.927-10.437-7.309-13.236
			c-25.091,37.418-39.746,82.418-39.746,130.854C164.709,511.182,179.364,556.2,204.455,593.618z"/>
		<path d="M400,78.418L400,78.418L400,78.418c-202.818,0-352.945,79.982-352.945,266.673c0,114.255,1.127,153.491,47.054,188.236
			h54.909V431.382H94.109c0,0-1.127-15.109-1.127-40.327c0-169.055,131.345-245.382,307-245.382l0,0
			c175.655,0,307,76.327,307,245.382c0,25.236-1.127,40.327-1.127,40.327h-54.909v101.945h54.909
			c45.945-34.745,47.073-118.764,47.073-188.236C752.945,158.418,602.8,78.418,400,78.418z"/>
		<g>
			<path fill="#D9D9D9" d="M62.746,345.091L62.746,345.091c0,110.8,1.854,143.728,37.182,172.546c6.346,0,19.764,0,33.4,0
				c0-18.382,0-52.219,0-70.601c-16,0-54.473,0-54.473,0l-0.382-14.527l-1.164-41.491c0-163.473,120.636-261.073,322.691-261.073
				s322.691,97.618,322.691,261.073l-1.601,56.727l-15.218-0.727c0,0-23.2,0-39.2,0c0,18.382,0,52.218,0,70.6
				c13.399,0,26.091,0,32.836,0c37.437-32.891,37.746-113.182,37.746-172.545c0-218.345-211.291-250.964-337.255-250.964
				S62.746,126.728,62.746,345.091z"/>
		</g>
		<rect x="133.327" y="345.091" fill="#6EC3FF" width="62.746" height="235.291"/>
		<polygon fill="#2882C8" points="180.382,345.091 180.382,564.709 133.327,564.709 133.327,580.4 196.073,580.4 196.073,345.091 		
			"/>
		<rect x="603.928" y="345.091" fill="#6EC3FF" width="62.745" height="235.291"/>
		<polygon fill="#2882C8" points="650.981,345.091 650.981,564.709 603.928,564.709 603.928,580.4 666.673,580.4 666.673,345.091 		
			"/>
		<path d="M400,78.437L400,78.437L400,78.437c-210.364,0-320.091,88.473-337.254,219.6h86.272
			C172.182,195.909,247.891,156.4,400,156.091l0,0v0.018c152.127,0.291,227.818,39.8,250.964,141.927h86.272
			C720.072,166.909,610.346,78.437,400,78.437z"/>
		<rect fill="none" width="800" height="800"/>
		<g>
			<path fill="#595959" d="M70.073,282.346c21.254,0,52.582,0,66.927,0c27.673-98.891,107.146-141.637,262.964-141.946
				c155.891,0.309,235.363,43.055,263.018,141.946c14.346,0,45.655,0,66.928,0C692.272,119.473,508.873,94.109,400,94.109
				C291.127,94.109,107.727,119.473,70.073,282.346z"/>
		</g>
		<rect x="666.673" y="447.055" fill="#8A8A8A" width="15.673" height="70.6"/>
		<path fill="#383838" d="M730.473,282.346h-29.346c2.273,5.109,4.31,10.363,6.236,15.69h26.146
			C732.637,292.673,731.637,287.455,730.473,282.346z"/>
		<path fill="#383838" d="M66.491,298.036h26.146c1.909-5.327,3.964-10.582,6.218-15.69H69.527
			C68.364,287.455,67.364,292.673,66.491,298.036z"/>
		<rect x="117.654" y="447.055" fill="#8A8A8A" width="15.691" height="70.6"/>
		<path fill="#8A8A8A" d="M400,94.109c-108.873,0-292.273,25.364-329.927,188.237c1.254-5.4,2.727-10.582,4.273-15.691h51.418
			c32.673-97.709,117.473-141.636,274.164-141.945c30.927,0.055,58.963,1.891,84.436,5.418l44.909-22.437
			C483.327,97.236,437.291,94.109,400,94.109z M399.981,140.418c21,0.037,40.437,0.964,58.728,2.582l0.164-0.073"/>
	</g>
</g>
<path fill="#3FA000" d="M752.928,738.356c0,5.05-3.582,9.144-8,9.144H492.575c-4.418,0-8-4.094-8-9.144V564.343
	c0-5.05,3.582-9.144,8-9.144h252.353c4.418,0,8,4.094,8,9.144V738.356z"/>
<g>
	<path fill="#FFFFFF" d="M566.819,703.577c-11.526-2.939-20.229-9.804-26.109-20.596c-5.881-10.79-8.82-26.446-8.82-46.969
		c0-22.345,4.014-38.824,12.04-49.438s19.979-15.921,35.855-15.921c15.935,0,27.931,5.322,35.987,15.965
		c8.056,10.644,12.084,27.109,12.084,49.395c0,20.582-3.103,36.548-9.306,47.895c-6.205,11.35-15.511,18.083-27.917,20.2
		c1.06,4.939,2.735,8.672,5.028,11.201c2.293,2.528,7.057,3.793,14.289,3.793v13.937h-5.821c-10.88,0-19.141-2.191-24.785-6.571
		C573.699,722.085,569.522,714.455,566.819,703.577z M579.785,689.818c7.35,0,12.951-3.837,16.803-11.512
		c3.851-7.674,5.778-21.771,5.778-42.294c0-18.581-1.912-31.592-5.734-39.03c-3.823-7.438-9.438-11.158-16.847-11.158
		c-7.352,0-12.952,3.603-16.804,10.805c-3.852,7.204-5.777,20.332-5.777,39.384c0,17.936,1.882,31.388,5.646,40.354
		C566.612,685.335,572.257,689.818,579.785,689.818z"/>
	<path fill="#FFFFFF" d="M676.457,704.988c-8.585,0-14.922-1.97-19.007-5.909c-4.088-3.939-6.131-10.025-6.131-18.258V614.49
		h-12.966v-8.29l28.49-29.108h8.468v23.374h23.903v14.024h-23.903v62.891c0,5.469,0.851,8.997,2.558,10.585
		c1.705,1.588,4.292,2.381,7.762,2.381c3.821,0,8.879-0.822,15.171-2.469v13.671C692.511,703.843,684.396,704.988,676.457,704.988z"
		/>
</g>
</svg>
