<?xml version="1.0" encoding="UTF-8"?>
<!DOCTYPE svg PUBLIC "-//W3C//DTD SVG 1.1 Tiny//EN" "http://www.w3.org/Graphics/SVG/1.1/DTD/svg11-tiny.dtd">
<svg baseProfile="tiny" xmlns="http://www.w3.org/2000/svg" xmlns:xlink="http://www.w3.org/1999/xlink" width="100%" height="100%" viewBox="0 0 22 22">
<g>
<g>
<rect fill="none" width="22" height="22"/>
<path fill="#FFFFFF" d="M19.562,8.625H8.687v11.25h10.875V8.625z M10.624,11.083h7.001c0.287,0,0.521,0.235,0.521,0.522      s-0.233,0.52-0.521,0.52h-7.001c-0.287,0-0.521-0.232-0.521-0.52S10.337,11.083,10.624,11.083z M17.625,17.834h-7.001      c-0.287,0-0.521-0.232-0.521-0.521c0-0.287,0.233-0.52,0.521-0.52h7.001c0.287,0,0.521,0.232,0.521,0.52      C18.146,17.602,17.912,17.834,17.625,17.834z M17.625,14.981h-7.001c-0.287,0-0.521-0.232-0.521-0.521      c0-0.287,0.233-0.52,0.521-0.52h7.001c0.287,0,0.521,0.232,0.521,0.52C18.146,14.749,17.912,14.981,17.625,14.981z"/>
<g>
<polygon fill="#FFFFFF" points="14.801,7.479 14.801,2.579 11.879,2.579 13.909,4.371 4.224,4.371 6.255,2.579 3.331,2.579        3.331,17.141 7.643,17.141 7.643,7.479 "/>
<polygon fill="#FFFFFF" points="6.775,3.487 7.705,2.556 6.368,1.218 11.766,1.218 10.539,2.443 11.605,3.51 "/>
</g>
</g>
</g>
</svg>
