<?xml version="1.0" encoding="UTF-8"?>
<!DOCTYPE svg PUBLIC "-//W3C//DTD SVG 1.1 Tiny//EN" "http://www.w3.org/Graphics/SVG/1.1/DTD/svg11-tiny.dtd">
<svg baseProfile="tiny" xmlns="http://www.w3.org/2000/svg" xmlns:xlink="http://www.w3.org/1999/xlink" width="100%" height="100%" viewBox="0 0 76 76">
<g>
<g>
<rect fill="none" width="76" height="76"/>
<path fill-opacity="0.5" stroke-opacity="0.5" d="M68.156,60.22c0,4.349-3.526,7.875-7.875,7.875H15.656      c-4.349,0-7.875-3.526-7.875-7.875V15.595c0-4.351,3.526-7.875,7.875-7.875h44.625c4.349,0,7.875,3.524,7.875,7.875V60.22z"/>
<linearGradient id="XMLID_7_" gradientUnits="userSpaceOnUse" x1="261.5049" y1="5.1226" x2="288.5793" y2="32.1971" gradientTransform="matrix(1 0 0 1 -244.125 18.9697)">
<stop offset="0" style="stop-color:#848383"/>
<stop offset="0.1914" style="stop-color:#787777"/>
<stop offset="1" style="stop-color:#494949"/>
</linearGradient>
<path fill="url(#XMLID_7_)" d="M24.736,19.818c-2.066-1.18-3.836-0.107-3.836,1.812c0,1.918,0,30.647,0,32.271      s2.064,2.805,3.54,2.065s30.187-15.761,31.72-16.671c1.771-1.053,1.609-2.584-0.295-3.542      C54.273,34.952,24.736,19.818,24.736,19.818z"/>
<path d="M21.339,55.238c0,0,2.134,1.453,3.206,0.906c1.071-0.545,31.854-17.098,31.854-17.098s0.604-1.995,0.201-2.56      L21.339,55.238z"/>
<linearGradient id="XMLID_8_" gradientUnits="userSpaceOnUse" x1="261.3887" y1="4.7949" x2="288.6448" y2="32.0509" gradientTransform="matrix(1 0 0 1 -244.125 18.9697)">
<stop offset="0" style="stop-color:#FFFFFF"/>
<stop offset="0.1084" style="stop-color:#F1F1F1"/>
<stop offset="1" style="stop-color:#848383"/>
</linearGradient>
<path fill="url(#XMLID_8_)" d="M56.398,39.049c0,0,0.807-1.129-0.402-1.855c-1.21-0.726-31.29-15.886-32.258-16.451      c-0.968-0.563-1.775,0.08-1.775,1.048c0,0.969,0,30.727,0,31.695c0,1.531,0.646,2.498,0.646,2.498s-1.921-0.576-2.016-2.338      c-0.054-0.98-0.012-30.964,0-32.097c0.015-1.532,1.369-3.308,3.789-2.099c2.42,1.21,31.625,15.949,32.339,16.451      C58.898,37.437,56.398,39.049,56.398,39.049z"/>
</g>
</g>
</svg>
