<?xml version="1.0" encoding="UTF-8"?>
<!DOCTYPE svg PUBLIC "-//W3C//DTD SVG 1.1 Tiny//EN" "http://www.w3.org/Graphics/SVG/1.1/DTD/svg11-tiny.dtd">
<svg baseProfile="tiny" xmlns="http://www.w3.org/2000/svg" xmlns:xlink="http://www.w3.org/1999/xlink" width="100%" height="100%" viewBox="0 0 44 44">
<g>
<g>
<g>
<path d="M33.216,16.98c-1.104,0-2,0.896-2,2v12.941c0,1.104,0.896,2,2,2h3.451c1.104,0,2-0.896,2-2V18.98c0-1.104-0.896-2-2-2       H33.216z"/>
</g>
<g>
<path d="M7.333,16.98c-1.104,0-2,0.896-2,2v12.941c0,1.104,0.896,2,2,2h3.451c1.104,0,2-0.896,2-2V18.98c0-1.104-0.896-2-2-2       H7.333z"/>
</g>
<g>
<path d="M8.196,25.45c0,3.688,1.436,7.155,4.043,9.763c2.607,2.606,6.073,4.042,9.76,4.042c7.611,0,13.804-6.192,13.804-13.805       c0-7.611-6.192-13.803-13.804-13.803C14.388,11.647,8.196,17.839,8.196,25.45z"/>
</g>
<circle fill="#635E54" cx="22" cy="25.45" r="12.941"/>
<path fill="#AAA096" d="M11.571,31.533l21.557-10.778c-1.836-4.334-6.133-7.382-11.128-7.382      c-6.66,0-12.079,5.418-12.079,12.078C9.921,27.668,10.525,29.745,11.571,31.533z"/>
<g>
<path fill="#4F4A44" d="M18.567,13.336h-1.084c-0.516,0.193-1.021,0.41-1.503,0.664v1.063c0,0,0,0.862-0.863,0.862       s-1.727,0-1.727,0s-0.047,0-0.114-0.012c-2.199,2.014-3.699,4.77-4.098,7.878c0.434,0.435,0.763,0.764,0.763,0.764       s-0.862,0.86,0,1.725c0.863,0.862,4.314,4.313,4.314,4.313s-0.863,0.863,0,1.726c0.803,0.802,1.726,1.727,1.726,1.727v2.858       c1.319,0.695,2.772,1.161,4.313,1.364v-0.771c0.863,0,1.725-0.864,1.725-1.727v-4.313c0-0.762-0.913-1.726-1.725-1.726       s-1.726,0-1.726,0s-0.337-0.337-0.863-0.862c-0.526-0.527-1.225-0.504-1.725,0c-0.5,0.501-0.863,0.862-0.863,0.862       l-1.726-1.726c0.427-0.427,0.46-1.249,0-1.709c-0.46-0.461-0.861-0.88-0.861-0.88c-0.446-0.444-0.446-1.282,0-1.726       c0.442-0.444,1.279-0.444,1.724,0l0.863,0.865v1.725c0,0.431,0.863,0.431,0.863,0v-1.725l1.725-2.589c0,0,0,0,0.863,0       c0.862,0,1.726-0.864,1.726-1.727c0-0.861-0.863-1.726-1.726-1.726c-0.806,0-0.431,0-0.863,0s-0.432-0.864,0-0.864       s1.725,0,1.725,0s-0.001,0,0.863,0.864c0.432,0.433,1.294,0.431,1.726,0c0.431-0.432,0.429-1.294,0-1.726       C21.949,16.719,18.567,13.336,18.567,13.336z M34.676,22.826h-1.442l-1.726,1.728c0,0-1.725,0-2.587,0       c-0.863,0-1.727,0.86-1.727,1.725v2.588c0,0.825,0.921,1.725,1.727,1.725c0,0.009,0.862,0,0.862,0s0,0.863,0,1.726       c0,0.863,0.863,0.863,0.863,0.863v1.883c2.631-2.369,4.295-5.791,4.295-9.612C34.941,24.554,34.848,23.674,34.676,22.826z        M28.921,23.688c0.862,0,0.862-0.862,0.862-0.862v-1.722c0,0,0.005-0.866,0.864-0.866h2.586c0,0,0,0.863,0.863,0.863       c0.027,0,0.052,0,0.079,0c-1.28-3.587-4.092-6.436-7.658-7.765h-0.187l-1.725,1.726v2.591l0.696,0.696       c0.222,0.224,0.641,0.224,0.862,0c0.223-0.222,0.223-0.641,0-0.863l-0.255-0.254c-0.452-0.453,0-0.875,0-0.875       s0.421-0.433,0.854,0c0.431,0.432,0.86,0.867,0.86,0.867s-1.754,1.756-2.154,2.153c-0.399,0.401,0,0.864,0,0.864l0.861,0.863       c0,0,0,0.861,0,1.722c0,0.862,0.863,0.862,0.863,0.862S28.058,23.688,28.921,23.688z"/>
<path fill="#FFFDFC" d="M18.288,13.057c-1.161,0.346-2.251,0.857-3.251,1.495c-0.087,0.229-0.285,0.474-0.717,0.501       c-3.171,2.345-5.239,6.097-5.257,10.342c0.005,0.006,0.009,0.013,0.016,0.02c0.862,0.863,4.313,4.313,4.313,4.313       s-0.861,0.863,0,1.725c0.803,0.803,1.726,1.728,1.726,1.728v3.217c1.301,0.82,2.754,1.423,4.313,1.738V36.63       c0.863,0,1.726-0.862,1.726-1.725v-4.314c0-0.765-0.913-1.727-1.726-1.727c-0.813,0-1.725,0-1.725,0s-0.337-0.336-0.862-0.861       c-0.526-0.527-1.225-0.502-1.726,0c-0.5,0.501-0.863,0.861-0.863,0.861L12.53,27.14c0.425-0.427,0.458-1.248,0-1.709       c-0.461-0.46-0.864-0.879-0.864-0.879c-0.444-0.446-0.444-1.282,0-1.726c0.443-0.445,1.281-0.445,1.725,0l0.863,0.862v1.726       c0,0.431,0.863,0.431,0.863,0v-1.726l1.726-2.589c0,0,0,0,0.862,0c0.863,0,1.725-0.861,1.725-1.724       c0-0.864-0.862-1.727-1.725-1.727c-0.806,0-0.432,0-0.862,0c-0.432,0-0.432-0.862,0-0.862c0.431,0,1.725,0,1.725,0       s-0.002-0.001,0.862,0.862c0.431,0.432,1.295,0.432,1.726,0c0.431-0.431,0.43-1.296,0-1.725       C21.105,15.873,19.258,14.027,18.288,13.057z M34.891,24.443c-0.088-0.143-0.093-0.299-0.035-0.446       c-0.078-0.695-0.218-1.374-0.403-2.033h-2.081l-1.725,1.725c0,0-1.726,0-2.589,0s-1.727,0.863-1.727,1.726v2.588       c0,0.824,0.922,1.726,1.727,1.726c0,0.008,0.863,0,0.863,0s0,0.863,0,1.725c0,0.863,0.862,0.863,0.862,0.863v3.459       c3.128-2.362,5.158-6.102,5.158-10.324C34.941,25.111,34.916,24.777,34.891,24.443z M28.058,22.826       c0.863,0,0.863-0.862,0.863-0.862v-1.723c0,0,0.004-0.867,0.864-0.867h2.586c0,0,0,0.864,0.862,0.864c0.206,0,0.411,0,0.607,0       c-1.606-3.645-4.843-6.396-8.785-7.351l-1.313,1.311v2.591l0.696,0.695c0.224,0.222,0.641,0.222,0.863,0       c0.222-0.22,0.222-0.639,0-0.861l-0.255-0.255c-0.453-0.453,0-0.875,0-0.875s0.422-0.434,0.853,0       c0.431,0.433,0.861,0.867,0.861,0.867s-1.756,1.755-2.155,2.154c-0.399,0.4,0,0.863,0,0.863l0.863,0.864c0,0,0,0.858,0,1.723       c0,0.862,0.861,0.862,0.861,0.862S27.194,22.826,28.058,22.826z"/>
</g>
<path fill="#4F4A44" d="M32.756,18.252c-0.241,0.153-0.403,0.421-0.403,0.728v12.941c0,0.307,0.162,0.574,0.403,0.728      c1.38-2.059,2.186-4.534,2.186-7.199C34.941,22.786,34.136,20.311,32.756,18.252z"/>
<path fill="#4F4A44" d="M11.245,32.649c0.241-0.153,0.402-0.421,0.402-0.728V18.98c0-0.307-0.161-0.574-0.402-0.728      c-1.38,2.058-2.186,4.533-2.186,7.197C9.059,28.115,9.865,30.591,11.245,32.649z"/>
<path d="M22,4.313L22,4.313L22,4.313c-11.155,0-19.412,4.399-19.412,14.667c0,6.284,0.062,8.442,2.588,10.353h3.02v-5.607h-3.02      c0,0-0.062-0.831-0.062-2.218c0-9.298,7.224-13.496,16.885-13.496v0c9.661,0,16.885,4.198,16.885,13.496      c0,1.388-0.062,2.218-0.062,2.218h-3.02v5.607h3.02c2.527-1.911,2.589-6.532,2.589-10.353C41.412,8.713,33.154,4.313,22,4.313z"/>
<g>
<path fill="#D9D9D9" d="M3.451,18.98L3.451,18.98c0,6.094,0.102,7.905,2.045,9.49c0.349,0,1.087,0,1.837,0       c0-1.011,0-2.872,0-3.883c-0.88,0-2.996,0-2.996,0l-0.021-0.799l-0.064-2.282c0-8.991,6.635-14.359,17.748-14.359       c11.113,0,17.748,5.369,17.748,14.359l-0.088,3.12l-0.837-0.04c0,0-1.276,0-2.156,0c0,1.011,0,2.872,0,3.883       c0.737,0,1.435,0,1.806,0c2.059-1.809,2.076-6.225,2.076-9.49C40.549,6.97,28.928,5.176,22,5.176S3.451,6.97,3.451,18.98z"/>
</g>
<rect x="7.333" y="18.98" fill="#6EC3FF" width="3.451" height="12.941"/>
<polygon fill="#2882C8" points="9.921,18.98 9.921,31.059 7.333,31.059 7.333,31.922 10.784,31.922 10.784,18.98 "/>
<rect x="33.216" y="18.98" fill="#6EC3FF" width="3.451" height="12.941"/>
<polygon fill="#2882C8" points="35.804,18.98 35.804,31.059 33.216,31.059 33.216,31.922 36.667,31.922 36.667,18.98 "/>
<path d="M22,4.314L22,4.314L22,4.314c-11.57,0-17.605,4.866-18.549,12.078h4.745C9.47,10.775,13.634,8.602,22,8.585l0,0v0.001      c8.367,0.016,12.53,2.189,13.803,7.806h4.745C39.604,9.18,33.569,4.314,22,4.314z"/>
<rect fill="none" width="44" height="44"/>
<g>
<path fill="#595959" d="M3.854,15.529c1.169,0,2.892,0,3.681,0c1.522-5.439,5.893-7.79,14.463-7.807       c8.574,0.017,12.945,2.368,14.466,7.807c0.789,0,2.511,0,3.681,0C38.075,6.571,27.988,5.176,22,5.176       C16.012,5.176,5.925,6.571,3.854,15.529z"/>
</g>
<rect x="36.667" y="24.588" fill="#8A8A8A" width="0.862" height="3.883"/>
<path fill="#383838" d="M40.176,15.529h-1.614c0.125,0.281,0.237,0.57,0.343,0.863h1.438      C40.295,16.097,40.24,15.81,40.176,15.529z"/>
<path fill="#383838" d="M3.657,16.392h1.438c0.105-0.293,0.218-0.582,0.342-0.863H3.824C3.76,15.81,3.705,16.097,3.657,16.392z"/>
<rect x="6.471" y="24.588" fill="#8A8A8A" width="0.863" height="3.883"/>
<path fill="#8A8A8A" d="M22,5.176c-5.988,0-16.075,1.395-18.146,10.353c0.069-0.297,0.15-0.582,0.235-0.863h2.828      c1.797-5.374,6.461-7.79,15.079-7.807c1.701,0.003,3.243,0.104,4.644,0.298l2.47-1.234C26.583,5.348,24.051,5.176,22,5.176z       M21.999,7.723c1.155,0.002,2.224,0.053,3.23,0.142l0.009-0.004"/>
</g>
</g>
</svg>
