<?xml version="1.0" encoding="UTF-8"?>
<!DOCTYPE svg PUBLIC "-//W3C//DTD SVG 1.1 Tiny//EN" "http://www.w3.org/Graphics/SVG/1.1/DTD/svg11-tiny.dtd">
<svg baseProfile="tiny" xmlns="http://www.w3.org/2000/svg" xmlns:xlink="http://www.w3.org/1999/xlink" width="100%" height="100%" viewBox="0 0 22 22">
<g>
<g>
<rect fill="none" width="22" height="22"/>
<path d="M4.792,10.375c-0.287,0-0.521-0.232-0.521-0.521c0-0.287,0.233-0.52,0.521-0.52H7.75V7.521H4.792      C4.505,7.521,4.271,7.289,4.271,7c0-0.287,0.233-0.52,0.521-0.52H7.75V5.584h5.979V1.167H2.854v14H7.75v-4.792H4.792z       M4.792,3.625h7.001c0.287,0,0.521,0.233,0.521,0.521c0,0.288-0.233,0.521-0.521,0.521H4.792c-0.287,0-0.521-0.233-0.521-0.521      C4.271,3.859,4.505,3.625,4.792,3.625z"/>
<path d="M8.604,6.375v14h10.875v-14H8.604z M17.543,15.584h-7.001c-0.287,0-0.521-0.232-0.521-0.521      c0-0.287,0.233-0.52,0.521-0.52h7.001c0.287,0,0.521,0.232,0.521,0.52C18.063,15.352,17.83,15.584,17.543,15.584z M17.543,12.73      h-7.001c-0.287,0-0.521-0.232-0.521-0.521c0-0.287,0.233-0.52,0.521-0.52h7.001c0.287,0,0.521,0.232,0.521,0.52      C18.063,12.498,17.83,12.73,17.543,12.73z M17.543,9.875h-7.001c-0.287,0-0.521-0.233-0.521-0.521s0.233-0.521,0.521-0.521      h7.001c0.287,0,0.521,0.234,0.521,0.521S17.83,9.875,17.543,9.875z"/>
</g>
</g>
</svg>
