<?xml version="1.0" encoding="UTF-8"?>
<!DOCTYPE svg PUBLIC "-//W3C//DTD SVG 1.1 Tiny//EN" "http://www.w3.org/Graphics/SVG/1.1/DTD/svg11-tiny.dtd">
<svg baseProfile="tiny" xmlns="http://www.w3.org/2000/svg" xmlns:xlink="http://www.w3.org/1999/xlink" width="100%" height="100%" viewBox="0 0 42 29">
<g>
<g>
<rect fill="none" width="42" height="29"/>
<g>
<g>
<path d="M29.118,11.427c-0.799,0-1.448,0.648-1.448,1.448v9.367c0,0.799,0.649,1.446,1.448,1.446h2.498        c0.8,0,1.447-0.647,1.447-1.446v-9.367c0-0.799-0.647-1.448-1.447-1.448H29.118z"/>
</g>
<g>
<path d="M10.384,11.427c-0.799,0-1.447,0.648-1.447,1.448v9.367c0,0.799,0.648,1.446,1.447,1.446h2.499        c0.799,0,1.447-0.647,1.447-1.446v-9.367c0-0.799-0.648-1.448-1.447-1.448H10.384z"/>
</g>
<g>
<path d="M11.009,17.559c0,2.669,1.04,5.179,2.926,7.065C15.822,26.51,18.331,27.55,21,27.55c5.508,0,9.99-4.481,9.99-9.991        c0-5.509-4.48-9.991-9.99-9.991C15.491,7.568,11.009,12.049,11.009,17.559z"/>
</g>
<circle fill="#635E54" cx="21" cy="17.558" r="9.367"/>
<path fill="#AAA096" d="M13.452,21.961l15.603-7.801C27.726,11.023,24.616,8.817,21,8.817c-4.82,0-8.743,3.921-8.743,8.743       C12.258,19.163,12.695,20.667,13.452,21.961z"/>
<g>
<path fill="#4F4A44" d="M18.516,8.79h-0.785c-0.374,0.14-0.739,0.297-1.088,0.48v0.77c0,0,0,0.624-0.625,0.624s-1.25,0-1.25,0        s-0.034,0-0.083-0.009c-1.591,1.458-2.677,3.453-2.966,5.702c0.314,0.314,0.552,0.553,0.552,0.553s-0.624,0.623,0,1.249        c0.625,0.624,3.122,3.121,3.122,3.121s-0.624,0.624,0,1.249c0.582,0.58,1.25,1.25,1.25,1.25v2.069        c0.955,0.503,2.006,0.84,3.122,0.986v-0.558c0.625,0,1.249-0.625,1.249-1.251v-3.121c0-0.551-0.661-1.249-1.249-1.249        c-0.587,0-1.249,0-1.249,0s-0.244-0.243-0.625-0.624c-0.381-0.382-0.887-0.364-1.249,0c-0.362,0.362-0.625,0.624-0.625,0.624        l-1.249-1.249c0.309-0.31,0.333-0.903,0-1.237c-0.333-0.333-0.624-0.636-0.624-0.636c-0.323-0.321-0.323-0.929,0-1.25        c0.32-0.321,0.926-0.321,1.248,0l0.625,0.626v1.249c0,0.312,0.625,0.312,0.625,0V16.91l1.249-1.874c0,0,0,0,0.625,0        c0.624,0,1.249-0.625,1.249-1.25c0-0.623-0.625-1.249-1.249-1.249c-0.583,0-0.312,0-0.625,0c-0.313,0-0.313-0.626,0-0.626        c0.313,0,1.248,0,1.248,0s0,0,0.625,0.626c0.313,0.313,0.937,0.312,1.25,0c0.312-0.313,0.311-0.937,0-1.25        C20.963,11.238,18.516,8.79,18.516,8.79z M30.175,15.659h-1.043l-1.25,1.251c0,0-1.248,0-1.872,0s-1.251,0.622-1.251,1.248        v1.873c0,0.597,0.668,1.248,1.251,1.248c0,0.007,0.624,0,0.624,0s0,0.625,0,1.25s0.625,0.625,0.625,0.625v1.362        c1.904-1.715,3.108-4.191,3.108-6.957C30.367,16.91,30.3,16.272,30.175,15.659z M26.01,16.282        c0.624,0,0.624-0.623,0.624-0.623v-1.246c0,0,0.003-0.628,0.625-0.628h1.871c0,0,0,0.625,0.625,0.625c0.021,0,0.039,0,0.058,0        c-0.927-2.596-2.962-4.658-5.542-5.62h-0.136l-1.249,1.25v1.875l0.503,0.504c0.161,0.162,0.464,0.162,0.624,0        c0.162-0.161,0.162-0.464,0-0.625l-0.185-0.184c-0.327-0.328,0-0.633,0-0.633s0.305-0.313,0.618,0        c0.312,0.313,0.622,0.627,0.622,0.627s-1.269,1.271-1.56,1.558c-0.289,0.291,0,0.626,0,0.626l0.624,0.625c0,0,0,0.622,0,1.246        c0,0.623,0.624,0.623,0.624,0.623S25.386,16.282,26.01,16.282z"/>
<path fill="#FFFDFC" d="M18.313,8.588c-0.84,0.25-1.629,0.62-2.353,1.082c-0.063,0.167-0.207,0.343-0.52,0.363        c-2.295,1.697-3.792,4.413-3.805,7.486c0.003,0.003,0.007,0.009,0.012,0.015c0.624,0.623,3.122,3.122,3.122,3.122        s-0.624,0.624,0,1.248c0.581,0.58,1.249,1.251,1.249,1.251v2.328c0.941,0.593,1.993,1.029,3.122,1.258v-1.09        c0.625,0,1.25-0.625,1.25-1.249v-3.122c0-0.554-0.661-1.25-1.25-1.25c-0.588,0-1.249,0-1.249,0s-0.244-0.244-0.624-0.623        c-0.381-0.381-0.887-0.363-1.25,0c-0.362,0.362-0.625,0.623-0.625,0.623l-1.249-1.248c0.308-0.31,0.332-0.903,0-1.236        c-0.333-0.334-0.625-0.638-0.625-0.638c-0.321-0.322-0.321-0.928,0-1.248c0.321-0.322,0.927-0.322,1.249,0l0.625,0.623v1.25        c0,0.312,0.625,0.312,0.625,0v-1.25l1.249-1.873c0,0,0,0,0.625,0s1.248-0.624,1.248-1.248c0-0.625-0.624-1.25-1.248-1.25        c-0.583,0-0.313,0-0.625,0c-0.312,0-0.312-0.624,0-0.624s1.249,0,1.249,0s-0.001,0,0.624,0.624        c0.312,0.313,0.938,0.313,1.249,0c0.312-0.312,0.312-0.938,0-1.248C20.353,10.626,19.016,9.29,18.313,8.588z M30.331,16.829        c-0.064-0.104-0.067-0.216-0.025-0.322c-0.057-0.504-0.157-0.995-0.292-1.472h-1.506l-1.249,1.249c0,0-1.249,0-1.873,0        c-0.625,0-1.251,0.623-1.251,1.249v1.873c0,0.596,0.667,1.249,1.251,1.249c0,0.005,0.624,0,0.624,0s0,0.624,0,1.248        c0,0.625,0.624,0.625,0.624,0.625v2.503c2.265-1.709,3.733-4.416,3.733-7.472C30.367,17.313,30.349,17.071,30.331,16.829z         M25.386,15.659c0.624,0,0.624-0.624,0.624-0.624v-1.247c0,0,0.003-0.628,0.625-0.628h1.872c0,0,0,0.625,0.623,0.625        c0.15,0,0.299,0,0.44,0c-1.162-2.638-3.505-4.629-6.359-5.32l-0.95,0.949v1.875l0.503,0.503c0.163,0.161,0.465,0.161,0.625,0        c0.161-0.159,0.161-0.463,0-0.624l-0.185-0.184c-0.328-0.328,0-0.634,0-0.634s0.305-0.314,0.617,0        c0.313,0.313,0.623,0.628,0.623,0.628s-1.271,1.271-1.559,1.559c-0.289,0.29,0,0.625,0,0.625l0.624,0.626c0,0,0,0.621,0,1.247        c0,0.624,0.624,0.624,0.624,0.624S24.759,15.659,25.386,15.659z"/>
</g>
<path fill="#4F4A44" d="M28.785,12.349c-0.173,0.111-0.291,0.304-0.291,0.526v9.367c0,0.223,0.118,0.415,0.291,0.526       c0.999-1.49,1.582-3.281,1.582-5.21S29.784,13.838,28.785,12.349z"/>
<path fill="#4F4A44" d="M13.216,22.769c0.174-0.11,0.291-0.304,0.291-0.526v-9.367c0-0.222-0.116-0.416-0.291-0.526       c-0.999,1.489-1.583,3.281-1.583,5.209C11.634,19.487,12.217,21.279,13.216,22.769z"/>
<path d="M21,2.259L21,2.259L21,2.259c-8.074,0-14.05,3.184-14.05,10.616c0,4.548,0.045,6.11,1.873,7.493h2.186v-4.058H8.823       c0,0-0.045-0.602-0.045-1.606c0-6.729,5.229-9.767,12.222-9.767l0,0c6.992,0,12.221,3.038,12.221,9.767       c0,1.006-0.044,1.606-0.044,1.606h-2.188v4.058h2.188c1.828-1.383,1.873-4.728,1.873-7.493C35.051,5.444,29.073,2.259,21,2.259       z"/>
<g>
<path fill="#D9D9D9" d="M7.575,12.875L7.575,12.875c0,4.411,0.073,5.722,1.48,6.868c0.253,0,0.787,0,1.329,0        c0-0.73,0-2.078,0-2.811c-0.636,0-2.168,0-2.168,0l-0.016-0.578l-0.046-1.651C8.154,8.196,12.957,4.311,21,4.311        s12.846,3.886,12.846,10.393l-0.064,2.258l-0.604-0.028c0,0-0.925,0-1.562,0c0,0.732,0,2.079,0,2.811c0.534,0,1.038,0,1.307,0        c1.49-1.31,1.503-4.505,1.503-6.868c0-8.693-8.411-9.991-13.425-9.991C15.986,2.884,7.575,4.182,7.575,12.875z"/>
</g>
<rect x="10.384" y="12.875" fill="#6EC3FF" width="2.499" height="9.367"/>
<polygon fill="#2882C8" points="12.258,12.875 12.258,21.617 10.384,21.617 10.384,22.242 12.883,22.242 12.883,12.875 "/>
<rect x="29.118" y="12.875" fill="#6EC3FF" width="2.498" height="9.367"/>
<polygon fill="#2882C8" points="30.992,12.875 30.992,21.617 29.118,21.617 29.118,22.242 31.616,22.242 31.616,12.875 "/>
<path d="M21,2.26L21,2.26L21,2.26c-8.374,0-12.742,3.522-13.425,8.742h3.434c0.922-4.065,3.936-5.638,9.991-5.65l0,0l0,0       c6.056,0.012,9.069,1.585,9.99,5.65h3.435C33.742,5.782,29.374,2.26,21,2.26z"/>
<g>
<path fill="#595959" d="M7.866,10.377c0.846,0,2.094,0,2.665,0c1.102-3.937,4.266-5.638,10.468-5.65        c6.206,0.012,9.37,1.713,10.471,5.65c0.57,0,1.816,0,2.664,0C32.636,3.894,25.334,2.884,21,2.884        C16.667,2.884,9.366,3.894,7.866,10.377z"/>
</g>
<rect x="31.616" y="16.934" fill="#8A8A8A" width="0.624" height="2.811"/>
<path fill="#383838" d="M34.156,10.377h-1.168c0.09,0.204,0.171,0.413,0.247,0.625h1.042       C34.241,10.789,34.202,10.581,34.156,10.377z"/>
<path fill="#383838" d="M7.724,11.002h1.041c0.077-0.212,0.158-0.421,0.248-0.625H7.845       C7.798,10.581,7.759,10.789,7.724,11.002z"/>
<rect x="9.761" y="16.934" fill="#8A8A8A" width="0.625" height="2.811"/>
<path fill="#8A8A8A" d="M21,2.884c-4.334,0-11.635,1.01-13.134,7.493c0.05-0.215,0.109-0.421,0.17-0.624h2.047       c1.301-3.89,4.676-5.639,10.914-5.651c1.231,0.002,2.346,0.075,3.362,0.216l1.787-0.894C24.317,3.009,22.484,2.884,21,2.884z        M21,4.728c0.836,0.001,1.609,0.038,2.337,0.103l0.007-0.003"/>
</g>
</g>
</g>
</svg>
